Coordinates
version=1
nRows=29
nColumns=22
inDegrees=yes

Units are S.I. units (second, meters, Newtons, ...)
If the header above contains a line with 'inDegrees', this indicates whether rotational values are in degrees (yes) or radians (no).

endheader
time	pelvis_tilt	pelvis_list	pelvis_rotation	pelvis_tx	pelvis_ty	pelvis_tz	hip_flexion_r	hip_adduction_r	hip_rotation_r	knee_angle_r	ankle_angle_r	subtalar_angle_r	hip_flexion_l	hip_adduction_l	hip_rotation_l	knee_angle_l	ankle_angle_l	subtalar_angle_l	lumbar_extension	lumbar_bending	lumbar_rotation
      1.86000000	     -1.27392563	      4.69609196	    156.96330553	     -0.47344237	      1.07075551	      0.92683164	      2.93184377	     14.03807906	    -12.09795489	     -9.90127418	      7.87887134	    -12.83842312	     12.86197942	     -8.27233257	      5.13466609	    -63.20829324	     -0.03958728	      6.56803194	     -7.22661573	      4.84598480	     -4.95673223
      1.87000000	     -1.31338631	      4.61644061	    155.87905937	     -0.47948030	      1.07106491	      0.91997020	      2.21279273	     14.16879070	    -10.88899677	     -9.79971208	      8.01813134	    -12.96044240	     13.81700251	     -8.35023388	      5.24482829	    -62.56351025	      1.24992694	      5.66643140	     -7.17767184	      4.54095867	     -4.47216335
      1.88000000	     -1.24761165	      4.56106102	    154.69855856	     -0.48529550	      1.07116042	      0.91294689	      1.58407115	     14.35583854	     -9.62779688	     -9.70467044	      8.09740058	    -13.15362153	     14.77407893	     -8.36467541	      5.51459663	    -61.75309343	      2.29619384	      4.48627589	     -7.05648155	      4.31112376	     -4.02623656
      1.89000000	     -1.28771286	      4.51177238	    153.47804925	     -0.49112490	      1.07142186	      0.90595980	      0.80410383	     14.48390322	     -8.18819993	     -9.56375040	      8.19963803	    -13.28185841	     15.48961772	     -8.34896974	      5.73034056	    -60.74560375	      2.83408898	      2.95100944	     -7.02282554	      4.07690106	     -3.54629807
      1.90000000	     -1.43518865	      4.36033743	    152.40719822	     -0.49645942	      1.07174616	      0.89936494	      0.09052184	     14.40731340	     -7.18456471	     -9.51665538	      8.40045934	    -13.32913219	     16.16226053	     -8.16478086	      6.06752132	    -59.54529743	      4.00675381	      2.58677156	     -7.11082049	      3.66612472	     -3.26529945
      1.91000000	     -1.44483222	      4.24309391	    151.08172341	     -0.50198859	      1.07185603	      0.89228161	     -0.59060442	     14.41651856	     -5.83518501	     -9.45979032	      8.57950432	    -13.38803732	     16.79274577	     -8.13556983	      6.20080395	    -58.14170511	      4.93431484	      1.98233602	     -6.98087742	      3.38142149	     -2.76771852
      1.92000000	     -1.48414916	      4.12940922	    149.91019965	     -0.50727823	      1.07200725	      0.88559694	     -1.25674569	     14.39649321	     -4.53297743	     -9.41439539	      8.65158979	    -13.54530814	     17.41339504	     -8.01476886	      6.52419463	    -56.58299082	      5.50428470	      1.25480287	     -6.95667132	      3.08190427	     -2.41180858
      1.93000000	     -1.39961700	      3.90378060	    148.66111641	     -0.51222756	      1.07192858	      0.87884689	     -1.70196212	     14.32118913	     -3.22522619	     -9.43772093	      8.82493394	    -13.54031719	     18.18856802	     -7.89818005	      6.82811455	    -54.99297397	      6.07736481	      1.14675594	     -6.73876735	      2.76366779	     -2.06351610
      1.94000000	     -1.33643505	      3.73895446	    147.33090563	     -0.51735528	      1.07178744	      0.87182131	     -2.20075316	     14.27254128	     -1.86266752	     -9.51518382	      9.03677625	    -13.57548860	     18.74427894	     -7.97084294	      6.67635926	    -52.97979727	      6.98029315	      0.92470719	     -6.52491225	      2.50071547	     -1.62137574
      1.95000000	     -1.35171202	      3.61863274	    146.05626072	     -0.52238250	      1.07176846	      0.86492377	     -2.86828752	     14.19475727	     -0.52425834	     -9.43611581	      9.20400960	    -13.60502953	     19.13839305	     -8.00157146	      6.62345109	    -50.94262692	      7.52918161	      0.69706587	     -6.44148509	      2.25153440	     -1.28066393
      1.96000000	     -1.32528621	      3.39674066	    144.63242281	     -0.52728934	      1.07159731	      0.85791727	     -3.34329778	     14.01980476	      0.74508182	     -9.51156930	      9.32382358	    -13.74310392	     19.54946342	     -7.99660009	      6.44501477	    -48.86267593	      7.95688631	      0.48093518	     -6.22139402	      1.94804551	     -0.85477813
      1.97000000	     -1.31584482	      3.21528808	    143.28591823	     -0.53229258	      1.07146101	      0.85111244	     -3.87619354	     13.83915248	      2.13224939	     -9.60466429	      9.69936440	    -13.67230954	     19.91123091	     -7.98238354	      6.24791467	    -46.63543861	      8.17992782	     -0.48879918	     -6.04263541	      1.71516806	     -0.50871807
      1.98000000	     -1.22447796	      2.92453760	    141.72621565	     -0.53748229	      1.07107468	      0.84386428	     -4.23757702	     13.59760766	      3.62151862	     -9.82206909	     10.03564245	    -13.60683041	     20.23101484	     -8.03278870	      5.76472679	    -44.24731926	      8.42672022	     -0.54099005	     -5.66587968	      1.47690059	     -0.00302878
      1.99000000	     -1.28462517	      2.71930092	    140.39195758	     -0.54260668	      1.07087486	      0.83702958	     -4.76644036	     13.32435321	      4.93906082	     -9.94850576	     10.33920742	    -13.55519304	     20.35201728	     -7.93568184	      5.53270829	    -41.82978342	      8.71051571	     -0.75430566	     -5.52309345	      1.20877764	      0.30135090
      2.00000000	     -1.35338706	      2.48751791	    139.12656488	     -0.54775615	      1.07055029	      0.83045589	     -5.19191061	     13.00456986	      6.09104219	    -10.20861325	     10.75156525	    -13.51722243	     20.53238999	     -7.78318584	      5.19979262	    -39.34856714	      8.84775406	     -0.93694381	     -5.37554434	      0.95395328	      0.49285684
      2.01000000	     -1.43841461	      2.17097492	    137.84400152	     -0.55257986	      1.07008523	      0.82400520	     -5.47149531	     12.61101790	      7.26508524	    -10.58121502	     11.16831063	    -13.52867641	     20.69136053	     -7.48191014	      5.03454361	    -36.84780452	      8.80765319	     -0.65400827	     -5.21674967	      0.62230831	      0.65624577
      2.02000000	     -1.51191064	      1.84906183	    136.74570051	     -0.55763405	      1.06948987	      0.81784504	     -5.71356932	     12.22347387	      8.34501828	    -10.95512005	     11.58610302	    -13.58863150	     20.89076122	     -7.11355829	      4.98253780	    -34.38252883	      8.66301929	     -0.14340730	     -5.03552845	      0.32653870	      0.70915485
      2.03000000	     -1.53900304	      1.57384870	    135.65187007	     -0.56257198	      1.06871757	      0.81154344	     -5.88950560	     11.91689401	      9.36770340	    -11.41464172	     12.08670979	    -13.51254721	     21.07122348	     -6.83932228	      4.87963895	    -31.87913857	      8.55758217	      1.02109320	     -4.86801941	      0.09356340	      0.70385966
      2.04000000	     -1.72346432	      1.29032369	    134.63060567	     -0.56795569	      1.06805265	      0.80542816	     -6.17463182	     11.46580086	     10.28417674	    -11.86277380	     12.60267499	    -13.47361843	     21.11060264	     -6.36998977	      4.89158623	    -29.48325175	      8.21952462	      2.13881804	     -4.82019559	     -0.20280013	      0.57324432
      2.05000000	     -1.85977210	      0.98030357	    133.73891086	     -0.57307065	      1.06718440	      0.79933175	     -6.34420756	     11.06866205	     11.06067509	    -12.33957683	     13.09507301	    -13.48575756	     21.20763453	     -5.88597711	      4.99694218	    -27.05808051	      7.74522534	      3.72403095	     -4.70675084	     -0.52820270	      0.40712550
      2.06000000	     -2.09105941	      0.64072100	    132.72612940	     -0.57840497	      1.06639275	      0.79301073	     -6.57632028	     10.54622751	     11.93261444	    -12.82943256	     13.61339880	    -13.48329655	     21.14617935	     -5.36359504	      4.89573907	    -24.53831873	      7.23076870	      5.22926159	     -4.61563938	     -0.91716490	      0.32723003
      2.07000000	     -2.26786196	      0.33209617	    131.83766240	     -0.58389834	      1.06535852	      0.78683661	     -6.75787355	     10.09781615	     12.63554671	    -13.34079888	     14.12766966	    -13.51666178	     21.18059051	     -4.81040428	      5.11142334	    -22.27164661	      6.99733875	      7.10567771	     -4.52232094	     -1.23389334	      0.06533595
      2.08000000	     -2.30558998	     -0.03020900	    130.98418903	     -0.58925179	      1.06391292	      0.78075422	     -6.76083352	      9.72924885	     13.27585467	    -13.89536440	     14.67003680	    -13.52086584	     21.35693823	     -4.35884469	      5.28969081	    -20.10576617	      6.93387201	      9.31336974	     -4.26773618	     -1.46173150	     -0.08398448
      2.09000000	     -2.59721816	     -0.36568845	    130.16632704	     -0.59500014	      1.06274385	      0.77455650	     -6.96207918	      9.15848232	     13.76009253	    -14.45801035	     15.27378604	    -13.46573791	     21.24211272	     -3.67561807	      5.59775958	    -17.95536106	      7.09264545	     10.62916350	     -4.20757426	     -1.87136162	     -0.28819247
      2.10000000	     -2.91463087	     -0.76679991	    129.32397228	     -0.60059314	      1.06147715	      0.76832473	     -7.06909791	      8.52193210	     14.17110746	    -15.08546221	     15.95943443	    -13.35869183	     21.04419329	     -2.96326822	      6.11300141	    -15.72816254	      7.36319834	     11.92271073	     -4.12018612	     -2.34340910	     -0.41259511
      2.11000000	     -3.24203066	     -1.02629531	    128.49048163	     -0.60622856	      1.06031160	      0.76184758	     -7.34335526	      7.97288422	     14.59276592	    -15.63517638	     16.58686901	    -13.17914692	     20.64267607	     -2.36279898	      6.86862906	    -13.47158847	      7.46342475	     13.22515943	     -4.15348398	     -2.74341124	     -0.54792883
      2.12000000	     -3.54212904	     -1.26853047	    127.61808620	     -0.61175409	      1.05909039	      0.75522225	     -7.58035059	      7.44777485	     14.99779093	    -16.21076043	     17.08183769	    -13.08549243	     20.12230009	     -1.86223634	      7.99263324	    -11.22279564	      7.82544939	     15.05843776	     -4.20382314	     -3.14639894	     -0.58292570
      2.13000000	     -3.75438081	     -1.48599440	    126.69386565	     -0.61723007	      1.05765353	      0.74839553	     -7.74653868	      7.00440373	     15.41040267	    -16.84713025	     17.48006947	    -13.20747386	     19.84565479	     -1.51375288	      8.73985182	     -9.58887450	      7.68257896	     16.89484179	     -4.16625711	     -3.42583850	     -0.50314173
      2.14000000	     -3.90091012	     -1.58110014	    125.78660573	     -0.62256562	      1.05625169	      0.74157368	     -7.92466909	      6.72317710	     15.83739779	    -17.54733140	     17.93078730	    -12.97383358	     19.50086222	     -1.28708521	      9.60096629	     -8.19290580	      7.79193732	     16.70259943	     -4.23804802	     -3.58966550	     -0.43575806
